<svg width="18" height="16" viewBox="0 0 18 16" fill="none" xmlns="http://www.w3.org/2000/svg">
<path d="M0.5 1.75C0.5 1.05859 1.05859 0.5 1.75 0.5H16.75C17.4414 0.5 18 1.05859 18 1.75C18 2.44141 17.4414 3 16.75 3H1.75C1.05859 3 0.5 2.44141 0.5 1.75ZM0.5 8C0.5 7.30859 1.05859 6.75 1.75 6.75H16.75C17.4414 6.75 18 7.30859 18 8C18 8.69141 17.4414 9.25 16.75 9.25H1.75C1.05859 9.25 0.5 8.69141 0.5 8ZM18 14.25C18 14.9414 17.4414 15.5 16.75 15.5H1.75C1.05859 15.5 0.5 14.9414 0.5 14.25C0.5 13.5586 1.05859 13 1.75 13H16.75C17.4414 13 18 13.5586 18 14.25Z" fill="#4B5563"/>
</svg>
