<svg width="16" height="16" viewBox="0 0 16 16" fill="none" xmlns="http://www.w3.org/2000/svg">
<path d="M0 1.33333C0 0.595833 0.510714 0 1.14286 0H14.8571C15.4893 0 16 0.595833 16 1.33333C16 2.07083 15.4893 2.66667 14.8571 2.66667H1.14286C0.510714 2.66667 0 2.07083 0 1.33333ZM0 8C0 7.2625 0.510714 6.66667 1.14286 6.66667H14.8571C15.4893 6.66667 16 7.2625 16 8C16 8.7375 15.4893 9.33333 14.8571 9.33333H1.14286C0.510714 9.33333 0 8.7375 0 8ZM16 14.6667C16 15.4042 15.4893 16 14.8571 16H1.14286C0.510714 16 0 15.4042 0 14.6667C0 13.9292 0.510714 13.3333 1.14286 13.3333H14.8571C15.4893 13.3333 16 13.9292 16 14.6667Z" fill="#4B5563"/>
</svg>
