<svg width="15" height="16" viewBox="0 0 15 16" fill="none" xmlns="http://www.w3.org/2000/svg">
<path d="M4.55312 0.553125L4.32812 1H1.32812C0.775 1 0.328125 1.44687 0.328125 2C0.328125 2.55312 0.775 3 1.32812 3H13.3281C13.8813 3 14.3281 2.55312 14.3281 2C14.3281 1.44687 13.8813 1 13.3281 1H10.3281L10.1031 0.553125C9.93437 0.2125 9.5875 0 9.20938 0H5.44688C5.06875 0 4.72187 0.2125 4.55312 0.553125ZM13.3281 4H1.32812L1.99063 14.5938C2.04062 15.3844 2.69688 16 3.4875 16H11.1687C11.9594 16 12.6156 15.3844 12.6656 14.5938L13.3281 4Z" fill="#DC2626"/>
</svg>
