<svg width="17" height="16" viewBox="0 0 17 16" fill="none" xmlns="http://www.w3.org/2000/svg">
<path d="M15.5656 0.678076C14.8813 -0.00629884 13.775 -0.00629884 13.0906 0.678076L12.15 1.61558L15.2094 4.67495L16.15 3.73433C16.8344 3.04995 16.8344 1.9437 16.15 1.25933L15.5656 0.678076ZM6.21562 7.55308C6.025 7.7437 5.87812 7.97808 5.79375 8.23745L4.86875 11.0125C4.77813 11.2812 4.85 11.5781 5.05 11.7812C5.25 11.9843 5.54688 12.0531 5.81875 11.9625L8.59375 11.0375C8.85 10.9531 9.08437 10.8062 9.27812 10.6156L14.5063 5.38433L11.4438 2.32183L6.21562 7.55308ZM3.82812 1.99995C2.17188 1.99995 0.828125 3.3437 0.828125 4.99995V13C0.828125 14.6562 2.17188 16 3.82812 16H11.8281C13.4844 16 14.8281 14.6562 14.8281 13V9.99995C14.8281 9.44683 14.3813 8.99995 13.8281 8.99995C13.275 8.99995 12.8281 9.44683 12.8281 9.99995V13C12.8281 13.5531 12.3813 14 11.8281 14H3.82812C3.275 14 2.82812 13.5531 2.82812 13V4.99995C2.82812 4.44683 3.275 3.99995 3.82812 3.99995H6.82812C7.38125 3.99995 7.82812 3.55308 7.82812 2.99995C7.82812 2.44683 7.38125 1.99995 6.82812 1.99995H3.82812Z" fill="#2563EB"/>
</svg>
