<svg width="20" height="26" viewBox="0 0 20 26" fill="none" xmlns="http://www.w3.org/2000/svg">
<path d="M0.710938 0.111362C1.14258 -0.0866979 1.65039 -0.0155995 2.01094 0.294186L4.0625 2.05133L6.11406 0.294186C6.57109 -0.0968548 7.24648 -0.0968548 7.69844 0.294186L9.75 2.05133L11.8016 0.294186C12.2586 -0.0968548 12.934 -0.0968548 13.3859 0.294186L15.4375 2.05133L17.4891 0.294186C17.8496 -0.0155995 18.3574 -0.0866979 18.7891 0.111362C19.2207 0.309422 19.5 0.741091 19.5 1.21847V24.7825C19.5 25.2599 19.2207 25.6916 18.7891 25.8896C18.3574 26.0877 17.8496 26.0166 17.4891 25.7068L15.4375 23.9496L13.3859 25.7068C12.9289 26.0978 12.2535 26.0978 11.8016 25.7068L9.75 23.9496L7.69844 25.7068C7.24141 26.0978 6.56602 26.0978 6.11406 25.7068L4.0625 23.9496L2.01094 25.7068C1.65039 26.0166 1.14258 26.0877 0.710938 25.8896C0.279297 25.6916 0 25.2599 0 24.7825V1.21847C0 0.741091 0.279297 0.309422 0.710938 0.111362ZM4.875 7.31262C4.42812 7.31262 4.0625 7.67826 4.0625 8.12517C4.0625 8.57207 4.42812 8.93772 4.875 8.93772H14.625C15.0719 8.93772 15.4375 8.57207 15.4375 8.12517C15.4375 7.67826 15.0719 7.31262 14.625 7.31262H4.875ZM4.0625 17.8758C4.0625 18.3227 4.42812 18.6884 4.875 18.6884H14.625C15.0719 18.6884 15.4375 18.3227 15.4375 17.8758C15.4375 17.4289 15.0719 17.0633 14.625 17.0633H4.875C4.42812 17.0633 4.0625 17.4289 4.0625 17.8758ZM4.875 12.1879C4.42812 12.1879 4.0625 12.5536 4.0625 13.0005C4.0625 13.4474 4.42812 13.813 4.875 13.813H14.625C15.0719 13.813 15.4375 13.4474 15.4375 13.0005C15.4375 12.5536 15.0719 12.1879 14.625 12.1879H4.875Z" fill="#2563EB"/>
</svg>
