<svg width="23" height="20" viewBox="0 0 23 20" fill="none" xmlns="http://www.w3.org/2000/svg">
<path d="M22.9922 9.98047C22.9922 10.6836 22.4062 11.2344 21.7422 11.2344H20.4922L20.5195 17.4922C20.5195 17.5977 20.5117 17.7031 20.5 17.8086V18.4375C20.5 19.3008 19.8008 20 18.9375 20H18.3125C18.2695 20 18.2266 20 18.1836 19.9961C18.1289 20 18.0742 20 18.0195 20H16.75H15.8125C14.9492 20 14.25 19.3008 14.25 18.4375V17.5V15C14.25 14.3086 13.6914 13.75 13 13.75H10.5C9.80859 13.75 9.25 14.3086 9.25 15V17.5V18.4375C9.25 19.3008 8.55078 20 7.6875 20H6.75H5.50391C5.44531 20 5.38672 19.9961 5.32812 19.9922C5.28125 19.9961 5.23438 20 5.1875 20H4.5625C3.69922 20 3 19.3008 3 18.4375V14.0625C3 14.0273 3 13.9883 3.00391 13.9531V11.2344H1.75C1.04688 11.2344 0.5 10.6875 0.5 9.98047C0.5 9.62891 0.617188 9.31641 0.890625 9.04297L10.9062 0.3125C11.1797 0.0390625 11.4922 0 11.7656 0C12.0391 0 12.3516 0.078125 12.5859 0.273438L22.5625 9.04297C22.875 9.31641 23.0312 9.62891 22.9922 9.98047Z" fill="#4B5563"/>
</svg>
