<svg width="22" height="24" viewBox="0 0 22 24" fill="none" xmlns="http://www.w3.org/2000/svg">
<path d="M7.40625 6.75V9H14.9062V6.75C14.9062 4.67812 13.2281 3 11.1562 3C9.08437 3 7.40625 4.67812 7.40625 6.75ZM4.40625 9V6.75C4.40625 3.02344 7.42969 0 11.1562 0C14.8828 0 17.9062 3.02344 17.9062 6.75V9H18.6562C20.3109 9 21.6562 10.3453 21.6562 12V21C21.6562 22.6547 20.3109 24 18.6562 24H3.65625C2.00156 24 0.65625 22.6547 0.65625 21V12C0.65625 10.3453 2.00156 9 3.65625 9H4.40625Z" fill="#2563EB"/>
</svg>
