<svg width="34" height="30" viewBox="0 0 34 30" fill="none" xmlns="http://www.w3.org/2000/svg">
<path d="M23.5625 5.625V5.66602C23.252 5.64258 22.9414 5.625 22.625 5.625H15.125C14.1582 5.625 13.2207 5.74805 12.3242 5.97656C12.3184 5.85938 12.3125 5.74219 12.3125 5.625C12.3125 2.51953 14.832 0 17.9375 0C21.043 0 23.5625 2.51953 23.5625 5.625ZM22.625 7.5C22.8301 7.5 23.0352 7.50586 23.2344 7.51758C23.4805 7.53516 23.7266 7.55859 23.9727 7.59375C25.0039 6.39258 26.5391 5.625 28.25 5.625H28.9238C29.5332 5.625 29.9785 6.19922 29.832 6.79102L29.0234 10.0254C29.9492 10.8926 30.7051 11.9473 31.2207 13.125H32C33.0371 13.125 33.875 13.9629 33.875 15V20.625C33.875 21.6621 33.0371 22.5 32 22.5H30.125C29.5918 23.209 28.959 23.8418 28.25 24.375V28.125C28.25 29.1621 27.4121 30 26.375 30H24.5C23.4629 30 22.625 29.1621 22.625 28.125V26.25H15.125V28.125C15.125 29.1621 14.2871 30 13.25 30H11.375C10.3379 30 9.5 29.1621 9.5 28.125V24.375C7.45508 22.8398 6.06055 20.4902 5.79688 17.8125H4.10938C1.90625 17.8125 0.125 16.0312 0.125 13.8281C0.125 11.625 1.90625 9.84375 4.10938 9.84375H4.34375C5.12305 9.84375 5.75 10.4707 5.75 11.25C5.75 12.0293 5.12305 12.6562 4.34375 12.6562H4.10938C3.46484 12.6562 2.9375 13.1836 2.9375 13.8281C2.9375 14.4727 3.46484 15 4.10938 15H5.9375C6.64648 11.4961 9.31836 8.70117 12.752 7.80469C13.5078 7.60547 14.3047 7.5 15.125 7.5H22.625ZM26.375 15.4688C26.375 15.0958 26.2268 14.7381 25.9631 14.4744C25.6994 14.2107 25.3417 14.0625 24.9688 14.0625C24.5958 14.0625 24.2381 14.2107 23.9744 14.4744C23.7107 14.7381 23.5625 15.0958 23.5625 15.4688C23.5625 15.8417 23.7107 16.1994 23.9744 16.4631C24.2381 16.7268 24.5958 16.875 24.9688 16.875C25.3417 16.875 25.6994 16.7268 25.9631 16.4631C26.2268 16.1994 26.375 15.8417 26.375 15.4688Z" fill="#2563EB"/>
</svg>
