<svg width="25" height="24" viewBox="0 0 25 24" fill="none" xmlns="http://www.w3.org/2000/svg">
<path d="M0.328125 12C0.328125 8.8174 1.59241 5.76516 3.84284 3.51472C6.09328 1.26428 9.14553 0 12.3281 0C15.5107 0 18.563 1.26428 20.8134 3.51472C23.0638 5.76516 24.3281 8.8174 24.3281 12C24.3281 15.1826 23.0638 18.2348 20.8134 20.4853C18.563 22.7357 15.5107 24 12.3281 24C9.14553 24 6.09328 22.7357 3.84284 20.4853C1.59241 18.2348 0.328125 15.1826 0.328125 12ZM15.3281 16.5C15.3281 15.7547 15.0563 15.075 14.6109 14.55L18.2016 7.64062C18.4875 7.0875 18.2719 6.40781 17.7234 6.12188C17.175 5.83594 16.4953 6.05156 16.2047 6.6L12.6141 13.5141C12.5203 13.5047 12.4266 13.5 12.3281 13.5C10.6734 13.5 9.32812 14.8453 9.32812 16.5C9.32812 18.1547 10.6734 19.5 12.3281 19.5C13.9828 19.5 15.3281 18.1547 15.3281 16.5Z" fill="#2563EB"/>
</svg>
