<svg width="114" height="20" viewBox="0 0 114 20" fill="none" xmlns="http://www.w3.org/2000/svg">
<path d="M5.44602 19L0.451705 1.54545H4.48295L7.37216 13.6733H7.51705L10.7045 1.54545H14.1562L17.3352 13.6989H17.4886L20.3778 1.54545H24.4091L19.4148 19H15.8182L12.4943 7.58807H12.358L9.04261 19H5.44602ZM26.3161 19V5.90909H29.9467V19H26.3161ZM28.1399 4.22159C27.6001 4.22159 27.1371 4.04261 26.7507 3.68466C26.37 3.32102 26.1797 2.88636 26.1797 2.38068C26.1797 1.88068 26.37 1.4517 26.7507 1.09375C27.1371 0.730113 27.6001 0.548295 28.1399 0.548295C28.6797 0.548295 29.1399 0.730113 29.5206 1.09375C29.907 1.4517 30.1001 1.88068 30.1001 2.38068C30.1001 2.88636 29.907 3.32102 29.5206 3.68466C29.1399 4.04261 28.6797 4.22159 28.1399 4.22159ZM43.7472 9.64205L40.4233 9.84659C40.3665 9.5625 40.2443 9.30682 40.0568 9.07955C39.8693 8.84659 39.6222 8.66193 39.3153 8.52557C39.0142 8.38352 38.6534 8.3125 38.233 8.3125C37.6705 8.3125 37.196 8.43182 36.8097 8.67045C36.4233 8.90341 36.2301 9.21591 36.2301 9.60795C36.2301 9.92045 36.3551 10.1847 36.6051 10.4006C36.8551 10.6165 37.2841 10.7898 37.892 10.9205L40.2614 11.3977C41.5341 11.6591 42.483 12.0795 43.108 12.6591C43.733 13.2386 44.0455 14 44.0455 14.9432C44.0455 15.8011 43.7926 16.554 43.2869 17.2017C42.7869 17.8494 42.0994 18.3551 41.2244 18.7188C40.3551 19.0767 39.3523 19.2557 38.2159 19.2557C36.483 19.2557 35.1023 18.8949 34.0739 18.1733C33.0511 17.446 32.4517 16.4574 32.2756 15.2074L35.8466 15.0199C35.9545 15.5483 36.2159 15.9517 36.6307 16.2301C37.0455 16.5028 37.5767 16.6392 38.2244 16.6392C38.8608 16.6392 39.3722 16.517 39.7585 16.2727C40.1506 16.0227 40.3494 15.7017 40.3551 15.3097C40.3494 14.9801 40.2102 14.7102 39.9375 14.5C39.6648 14.2841 39.2443 14.1193 38.6761 14.0057L36.4091 13.554C35.1307 13.2983 34.179 12.8551 33.554 12.2244C32.9347 11.5937 32.625 10.7898 32.625 9.8125C32.625 8.97159 32.8523 8.24716 33.3068 7.6392C33.767 7.03125 34.4119 6.5625 35.2415 6.23295C36.0767 5.90341 37.054 5.73864 38.1733 5.73864C39.8267 5.73864 41.1278 6.08807 42.0767 6.78693C43.0313 7.4858 43.5881 8.4375 43.7472 9.64205ZM52.2976 19.2557C50.951 19.2557 49.7919 18.983 48.8203 18.4375C47.8544 17.8864 47.1101 17.108 46.5874 16.1023C46.0646 15.0909 45.8033 13.8949 45.8033 12.5142C45.8033 11.1676 46.0646 9.9858 46.5874 8.96875C47.1101 7.9517 47.8459 7.15909 48.7947 6.59091C49.7493 6.02273 50.8686 5.73864 52.1527 5.73864C53.0163 5.73864 53.8203 5.87784 54.5646 6.15625C55.3146 6.42898 55.968 6.84091 56.5249 7.39205C57.0874 7.94318 57.5249 8.63636 57.8374 9.47159C58.1499 10.3011 58.3061 11.2727 58.3061 12.3864V13.3835H47.2521V11.1335H54.8885C54.8885 10.6108 54.7749 10.1477 54.5476 9.74432C54.3203 9.34091 54.005 9.02557 53.6016 8.7983C53.2038 8.56534 52.7408 8.44886 52.2124 8.44886C51.6612 8.44886 51.1726 8.5767 50.7464 8.83239C50.326 9.08239 49.9964 9.42045 49.7578 9.84659C49.5192 10.267 49.397 10.7358 49.3913 11.2528V13.392C49.3913 14.0398 49.5107 14.5994 49.7493 15.071C49.9936 15.5426 50.3374 15.9062 50.7805 16.1619C51.2237 16.4176 51.7493 16.5455 52.3572 16.5455C52.7607 16.5455 53.13 16.4886 53.4652 16.375C53.8004 16.2614 54.0874 16.0909 54.326 15.8636C54.5646 15.6364 54.7464 15.358 54.8714 15.0284L58.2294 15.25C58.0589 16.0568 57.7095 16.7614 57.1811 17.3636C56.6584 17.9602 55.9822 18.4261 55.1527 18.7614C54.3288 19.0909 53.3771 19.2557 52.2976 19.2557ZM60.7436 19V1.54545H72.3004V4.58807H64.4339V8.74716H71.5334V11.7898H64.4339V19H60.7436ZM79.6683 19.2557C78.3445 19.2557 77.1996 18.9744 76.2337 18.4119C75.2734 17.8437 74.532 17.054 74.0092 16.0426C73.4865 15.0256 73.2251 13.8466 73.2251 12.5057C73.2251 11.1534 73.4865 9.97159 74.0092 8.96023C74.532 7.94318 75.2734 7.15341 76.2337 6.59091C77.1996 6.02273 78.3445 5.73864 79.6683 5.73864C80.9922 5.73864 82.1342 6.02273 83.0945 6.59091C84.0604 7.15341 84.8047 7.94318 85.3274 8.96023C85.8501 9.97159 86.1115 11.1534 86.1115 12.5057C86.1115 13.8466 85.8501 15.0256 85.3274 16.0426C84.8047 17.054 84.0604 17.8437 83.0945 18.4119C82.1342 18.9744 80.9922 19.2557 79.6683 19.2557ZM79.6854 16.4432C80.2876 16.4432 80.7905 16.2727 81.1939 15.9318C81.5973 15.5852 81.9013 15.1136 82.1058 14.517C82.3161 13.9205 82.4212 13.2415 82.4212 12.4801C82.4212 11.7188 82.3161 11.0398 82.1058 10.4432C81.9013 9.84659 81.5973 9.375 81.1939 9.02841C80.7905 8.68182 80.2876 8.50852 79.6854 8.50852C79.0774 8.50852 78.5661 8.68182 78.1513 9.02841C77.7422 9.375 77.4325 9.84659 77.2223 10.4432C77.0178 11.0398 76.9155 11.7188 76.9155 12.4801C76.9155 13.2415 77.0178 13.9205 77.2223 14.517C77.4325 15.1136 77.7422 15.5852 78.1513 15.9318C78.5661 16.2727 79.0774 16.4432 79.6854 16.4432ZM92.103 1.54545V19H88.4723V1.54545H92.103ZM95.0114 19V5.90909H98.642V19H95.0114ZM96.8352 4.22159C96.2955 4.22159 95.8324 4.04261 95.446 3.68466C95.0653 3.32102 94.875 2.88636 94.875 2.38068C94.875 1.88068 95.0653 1.4517 95.446 1.09375C95.8324 0.730113 96.2955 0.548295 96.8352 0.548295C97.375 0.548295 97.8352 0.730113 98.2159 1.09375C98.6023 1.4517 98.7955 1.88068 98.7955 2.38068C98.7955 2.88636 98.6023 3.32102 98.2159 3.68466C97.8352 4.04261 97.375 4.22159 96.8352 4.22159ZM107.465 19.2557C106.141 19.2557 104.996 18.9744 104.031 18.4119C103.07 17.8437 102.329 17.054 101.806 16.0426C101.283 15.0256 101.022 13.8466 101.022 12.5057C101.022 11.1534 101.283 9.97159 101.806 8.96023C102.329 7.94318 103.07 7.15341 104.031 6.59091C104.996 6.02273 106.141 5.73864 107.465 5.73864C108.789 5.73864 109.931 6.02273 110.891 6.59091C111.857 7.15341 112.602 7.94318 113.124 8.96023C113.647 9.97159 113.908 11.1534 113.908 12.5057C113.908 13.8466 113.647 15.0256 113.124 16.0426C112.602 17.054 111.857 17.8437 110.891 18.4119C109.931 18.9744 108.789 19.2557 107.465 19.2557ZM107.482 16.4432C108.085 16.4432 108.587 16.2727 108.991 15.9318C109.394 15.5852 109.698 15.1136 109.903 14.517C110.113 13.9205 110.218 13.2415 110.218 12.4801C110.218 11.7188 110.113 11.0398 109.903 10.4432C109.698 9.84659 109.394 9.375 108.991 9.02841C108.587 8.68182 108.085 8.50852 107.482 8.50852C106.874 8.50852 106.363 8.68182 105.948 9.02841C105.539 9.375 105.229 9.84659 105.019 10.4432C104.815 11.0398 104.712 11.7188 104.712 12.4801C104.712 13.2415 104.815 13.9205 105.019 14.517C105.229 15.1136 105.539 15.5852 105.948 15.9318C106.363 16.2727 106.874 16.4432 107.482 16.4432Z" fill="#2563EB"/>
</svg>
